# xmcd
#
# Track frame offsets:
#	150
#	21914
#	37119
#	62943
#	82061
#	104572
#	126574
#	144829
#	167055
#	192713
#	208069
#	222834
#
# Disc length: 3260 seconds
#
# Revision: 0
# Processed by: cddbd v1.5.2PL0 Copyright (c) Steve Scherf et al.
# Submitted via: audiograbber 1.81.03
#
DISCID=c10cba0c
DTITLE=Stan The Man`Hedges - Two Mule Parade
DYEAR=2007
DGENRE=Blues
TTITLE0=Angola Cowboy
TTITLE1=I Can Hear The Delta
TTITLE2=Won't Stand The Light Of Day
TTITLE3=Two-Mule Parade
TTITLE4=Reach The Light
TTITLE5=Waiting For The Sky To Fall
TTITLE6=Wade In The Water
TTITLE7=Butter Yo Biscuits
TTITLE8=Garden Of Pain
TTITLE9=Snapping Turtle Blues
TTITLE10=Hammer Down
TTITLE11=Kentucky Skin Tag Salad
EXTD=
EXTT0=
EXTT1=
EXTT2=
EXTT3=
EXTT4=
EXTT5=
EXTT6=
EXTT7=
EXTT8=
EXTT9=
EXTT10=
EXTT11=
PLAYORDER=
